<svg width="376" height="501" viewBox="0 0 376 501" fill="none" xmlns="http://www.w3.org/2000/svg">
<path d="M324.5 398C325.3 398 342.5 395.667 351 394.5V445L324.5 449.5V398Z" fill="white"/>
<path d="M287 403L314.5 400V451.5L287 457V403Z" fill="white"/>
<path d="M246 410L276 404.5V460L246 464.5V410Z" fill="white"/>
<path d="M325 329.5L351 328V378L325 382V329.5Z" fill="white"/>
<path d="M287 332L314.5 329.5V382L287 386.5V332Z" fill="white"/>
<path d="M246 334.5L276 332V386.5L246 390V334.5Z" fill="white"/>
<path d="M246 260H276V314.5L246 316.5V260Z" fill="white"/>
<path d="M287 260H314.5V312.5L287 314.5V260Z" fill="white"/>
<path d="M325 260H351V310.5L325 312.5V260Z" fill="white"/>
<path d="M325 191.5L351 193.5V244H325V191.5Z" fill="white"/>
<path d="M287 189.5L314.5 191.5V242H287V189.5Z" fill="white"/>
<path d="M246 185.5L276 187V242H246V185.5Z" fill="white"/>
<path d="M246 111L276 115.5V169L246 167V111Z" fill="white"/>
<path d="M287 117.5L314.5 122V173.5L287 171V117.5Z" fill="white"/>
<path d="M325 123.5L351 128V177L325 175V123.5Z" fill="white"/>
<path d="M325 54.5L351 60V109.5L325 105V54.5Z" fill="white"/>
<path d="M287 46L314.5 52V103L287 98.5V46Z" fill="white"/>
<path d="M246 36.5L276 43V97L246 91V36.5Z" fill="white"/>
<path fill-rule="evenodd" clip-rule="evenodd" d="M221.5 495L1.5 467.5L0.5 38L221.5 7V495ZM81.5 173V121.5L129 117L129.5 171.5L81.5 173ZM65.5 449.5L22 445V394.5L65.5 398V449.5ZM129.5 403L81.5 399.5V451.5L129.5 457.5V403ZM198 408.5L145.5 404.5V458.5L198 465V408.5ZM145.5 387L198 390V334L145.5 332.5V387ZM81.5 330L129.5 331.5V385.5L81.5 382.5V330ZM65.5 380.5V329L22 328V377.5L65.5 380.5ZM22 311V260.5H65.5V312L22 311ZM65.5 243L22 244V193.5L65.5 191.5V243ZM21.5 177V126.5L65.5 123V174.5L21.5 177ZM65.5 106V54.5L21.5 59.5V110.5L65.5 106ZM129.5 314L81.5 313V260.5H129.5V314ZM129.5 243H81.5V190.5L129.5 188.5V243ZM129 99L81 104.5V52L129 46V99ZM146 260H198V316L146 314V260ZM146 188V241.5H198L197.5 186L146 188ZM146 169V116L197.5 111V166.5L146 169ZM146 44V97L197.5 92V36.5L146 44Z" fill="white"/>
<path d="M324.5 398C325.3 398 342.5 395.667 351 394.5V445L324.5 449.5V398Z" stroke="black"/>
<path d="M287 403L314.5 400V451.5L287 457V403Z" stroke="black"/>
<path d="M246 410L276 404.5V460L246 464.5V410Z" stroke="black"/>
<path d="M325 329.5L351 328V378L325 382V329.5Z" stroke="black"/>
<path d="M287 332L314.5 329.5V382L287 386.5V332Z" stroke="black"/>
<path d="M246 334.5L276 332V386.5L246 390V334.5Z" stroke="black"/>
<path d="M246 260H276V314.5L246 316.5V260Z" stroke="black"/>
<path d="M287 260H314.5V312.5L287 314.5V260Z" stroke="black"/>
<path d="M325 260H351V310.5L325 312.5V260Z" stroke="black"/>
<path d="M325 191.5L351 193.5V244H325V191.5Z" stroke="black"/>
<path d="M287 189.5L314.5 191.5V242H287V189.5Z" stroke="black"/>
<path d="M246 185.5L276 187V242H246V185.5Z" stroke="black"/>
<path d="M246 111L276 115.5V169L246 167V111Z" stroke="black"/>
<path d="M287 117.5L314.5 122V173.5L287 171V117.5Z" stroke="black"/>
<path d="M325 123.5L351 128V177L325 175V123.5Z" stroke="black"/>
<path d="M325 54.5L351 60V109.5L325 105V54.5Z" stroke="black"/>
<path d="M287 46L314.5 52V103L287 98.5V46Z" stroke="black"/>
<path d="M246 36.5L276 43V97L246 91V36.5Z" stroke="black"/>
<path fill-rule="evenodd" clip-rule="evenodd" d="M221.5 495L1.5 467.5L0.5 38L221.5 7V495ZM81.5 173V121.5L129 117L129.5 171.5L81.5 173ZM65.5 449.5L22 445V394.5L65.5 398V449.5ZM129.5 403L81.5 399.5V451.5L129.5 457.5V403ZM198 408.5L145.5 404.5V458.5L198 465V408.5ZM145.5 387L198 390V334L145.5 332.5V387ZM81.5 330L129.5 331.5V385.5L81.5 382.5V330ZM65.5 380.5V329L22 328V377.5L65.5 380.5ZM22 311V260.5H65.5V312L22 311ZM65.5 243L22 244V193.5L65.5 191.5V243ZM21.5 177V126.5L65.5 123V174.5L21.5 177ZM65.5 106V54.5L21.5 59.5V110.5L65.5 106ZM129.5 314L81.5 313V260.5H129.5V314ZM129.5 243H81.5V190.5L129.5 188.5V243ZM129 99L81 104.5V52L129 46V99ZM146 260H198V316L146 314V260ZM146 188V241.5H198L197.5 186L146 188ZM146 169V116L197.5 111V166.5L146 169ZM146 44V97L197.5 92V36.5L146 44Z" stroke="black"/>
</svg>
